<?xml version="1.0" encoding="utf-8"?>
<!-- Generator: Adobe Illustrator 22.1.0, SVG Export Plug-In . SVG Version: 6.00 Build 0)  -->
<svg version="1.1" id="Layer_1" xmlns="http://www.w3.org/2000/svg" xmlns:xlink="http://www.w3.org/1999/xlink" x="0px" y="0px"
	 viewBox="0 0 90 90" style="enable-background:new 0 0 90 90;" xml:space="preserve">
<style type="text/css">
	.st0{fill:#FFFFFF;}
	.st1{fill:#9ACC65;}
	.st2{fill:#0070AE;}
</style>
<g>
	<rect x="1.3" y="2" class="st0" width="86.9" height="86.4"/>
	<path class="st1" d="M90,0H0v90h90V0z M86.4,86.4H3.6V3.6h82.9L86.4,86.4L86.4,86.4z"/>
	<path class="st2" d="M61.9,40.6h-5l-6.2-18.2V37h2.6v3.6h-8.8V37h2.2V19.3h-2.6v-3.6h9.1L60,35.6l6.2-19.9h9v3.6h-2.6v17.6h2.5v3.6
		h-9.6v-3.6h2.1V22.6L61.9,40.6z"/>
	<path class="st2" d="M22.2,59.8v-8.1h2.7c2.5,0,4,1.4,4,4c0,2.5-1.4,4.1-4,4.1C24.9,59.8,22.2,59.8,22.2,59.8z M17,69.4h-2.5V73
		h10.1v-3.6h-2.5v-6h3.5c5,0,8.3-3.3,8.3-8c0-4.9-3.1-7.4-9.1-7.4H14.5v3.6H17V69.4z"/>
	<path class="st2" d="M41.7,51.7h-2.2v-3.6h9.7v3.6H47v17.7h2.2V73h-9.7v-3.6h2.2V51.7z"/>
	<path class="st2" d="M75.1,73h-18v-3.6h2.2V51.7h-2.7v-3.6H75v7.3h-4.3v-3.7h-6.2v6.6h6.3v3.9h-6.3v7.3h6.3v-4.2h4.3
		C75.1,65.3,75.1,73,75.1,73z"/>
	<polygon class="st2" points="39.1,36.9 30.7,27.5 38.4,19.3 40.2,19.3 40.2,15.7 31.6,15.7 31.6,19.3 34,19.3 28.4,24.9 23.4,19.3 
		25.8,19.3 25.8,15.7 15.4,15.7 15.4,19.3 17.2,19.3 25,28.4 16.6,36.9 14.5,36.9 14.5,40.6 23.8,40.6 23.8,36.9 21.6,36.9 27.3,31 
		32.3,36.9 30.1,36.9 30.1,40.6 41.1,40.6 41.1,36.9 	"/>
	<g>
		<g>
			<path class="st2" d="M80.1,15c1.5,0,2.7,1.2,2.7,2.7s-1.2,2.7-2.7,2.7s-2.7-1.2-2.7-2.7C77.3,16.2,78.5,15,80.1,15L80.1,15z
				 M80,15.5c-1.2,0-2.2,1-2.2,2.2c0,1.3,1,2.2,2.2,2.2c1.3,0,2.2-1,2.2-2.2C82.3,16.5,81.3,15.5,80,15.5L80,15.5z M78.9,16.1h1
				c0.6,0,0.9,0.1,1.1,0.2s0.3,0.4,0.3,0.7c0,0.5-0.4,0.7-0.7,0.9l0.9,1.4h-0.7L80,18h-0.4v1.3h-0.7C78.9,19.3,78.9,16.1,78.9,16.1z
				 M79.6,17.6H80c0.4,0,0.6-0.2,0.6-0.5c0-0.4-0.4-0.5-0.8-0.5h-0.3v1H79.6z"/>
		</g>
		<g>
			<path class="st2" d="M80.1,15c1.5,0,2.7,1.2,2.7,2.7s-1.2,2.7-2.7,2.7s-2.7-1.2-2.7-2.7C77.3,16.2,78.5,15,80.1,15L80.1,15z
				 M80,15.5c-1.2,0-2.2,1-2.2,2.2c0,1.3,1,2.2,2.2,2.2c1.3,0,2.2-1,2.2-2.2C82.3,16.5,81.3,15.5,80,15.5L80,15.5z M78.9,16.1h1
				c0.6,0,0.9,0.1,1.1,0.2s0.3,0.4,0.3,0.7c0,0.5-0.4,0.7-0.7,0.9l0.9,1.4h-0.7L80,18h-0.4v1.3h-0.7C78.9,19.3,78.9,16.1,78.9,16.1z
				 M79.6,17.6H80c0.4,0,0.6-0.2,0.6-0.5c0-0.4-0.4-0.5-0.8-0.5h-0.3v1H79.6z"/>
		</g>
	</g>
</g>
</svg>
